<?xml version="1.0" encoding="UTF-8"?>
<svg width="75px" height="21px" viewBox="0 0 75 21" version="1.1" xmlns="http://www.w3.org/2000/svg" xmlns:xlink="http://www.w3.org/1999/xlink">
    <!-- Generator: Sketch 52.4 (67378) - http://www.bohemiancoding.com/sketch -->
    <title>logo</title>
    <desc>Created with Sketch.</desc>
    <g id="03" stroke="none" stroke-width="1" fill="none" fill-rule="evenodd" stroke-linecap="round" stroke-linejoin="round">
        <g id="01" transform="translate(-183.000000, -14.000000)" stroke-width="2">
            <g id="Header">
                <g id="logo" transform="translate(184.000000, 15.000000)">
                    <g id="amLogo">
                        <path d="M71.6226415,19 L45.9402442,19 C32.4549949,18.963901 34.6447984,0 24.0812445,0 C13.5176907,0 15.7078248,18.963901 2.35799409,19 L-8.56590275e-14,19" id="Stroke-1" stroke="#5EB0FC"></path>
                        <path d="M0,19 L21.7446809,19 C25.4172623,18.9796388 28.2948292,18.0727424 30.9020918,14.9384245 C32.3963108,13.1422016 33.7139131,11.162399 34.7639008,9.01740767 C35.6030541,7.30295811 36.0707447,5.315438 37.1755702,3.7684761 C38.0344472,2.56584909 39.9984486,2.33005275 41.0340918,3.37750738 C42.7204673,5.08341835 43.3329477,11.0852233 46.052725,11.2798046 C48.6342871,11.4646978 49.3884195,5.52069248 50.8913049,3.77717888 C53.6061513,0.628903682 56.1068762,4.12414105 57.2003456,6.89031452 C59.6141069,12.9963888 63.860229,18.9998358 70.6702128,18.9998358 L73,18.9998366" id="Page-1" stroke="#FFFFFF"></path>
                        <path d="M23.4150943,0 C13.1644334,0 15.2895509,19.0613819 2.26325531,18.9998514 L1.24344979e-13,18.9998514" id="Stroke-3" stroke="#5EB0FC"></path>
                    </g>
                </g>
            </g>
        </g>
    </g>
</svg>