<svg width="40" height="40" viewBox="0 0 40 40" fill="none" xmlns="http://www.w3.org/2000/svg">
<path d="M4.68391 8.65984C4.60984 6.53016 6.26891 4.56641 8.51172 4.56641H31.493C33.7358 4.56641 35.3948 6.53016 35.3208 8.65984C35.2495 10.7055 35.342 13.3555 36.0089 15.5161C36.678 17.6836 37.8061 19.0533 39.6539 19.2295V21.2255C37.8061 21.4017 36.678 22.7714 36.0089 24.9389C35.342 27.0995 35.2495 29.7495 35.3208 31.7952C35.3948 33.9248 33.7358 35.8883 31.493 35.8883H8.51172C6.26891 35.8883 4.60984 33.9245 4.68391 31.7952C4.75516 29.7495 4.66266 27.0995 3.99547 24.9389C3.32672 22.7717 2.19547 21.4017 0.347656 21.2255V19.2295C2.19547 19.0536 3.32672 17.6836 3.99547 15.5161C4.66266 13.3555 4.75484 10.7055 4.68391 8.65984Z" fill="url(#paint0_linear_1921_2301)"/>
<g filter="url(#filter0_d_1921_2301)">
<path d="M20.9729 28.6666C24.6039 28.6666 26.7918 26.8888 26.7918 23.9565C26.7918 21.7399 25.2307 20.1352 22.9126 19.8812V19.7889C24.6157 19.5118 25.9521 17.9302 25.9521 16.1639C25.9521 13.6472 23.9652 12.0078 20.9375 12.0078H14.125V28.6666H20.9729ZM16.7743 14.1205H20.2988C22.2148 14.1205 23.3029 14.9748 23.3029 16.5217C23.3029 18.1726 22.0374 19.0962 19.7429 19.0962H16.7743V14.1205ZM16.7743 26.554V21.0703H20.2751C22.7824 21.0703 24.0834 21.9938 24.0834 23.7948C24.0834 25.5957 22.818 26.554 20.4289 26.554H16.7743Z" fill="url(#paint1_linear_1921_2301)"/>
</g>
<defs>
<filter id="filter0_d_1921_2301" x="12.8967" y="11.0866" width="15.1246" height="19.1148" filterUnits="userSpaceOnUse" color-interpolation-filters="sRGB">
<feFlood flood-opacity="0" result="BackgroundImageFix"/>
<feColorMatrix in="SourceAlpha" type="matrix" values="0 0 0 0 0 0 0 0 0 0 0 0 0 0 0 0 0 0 127 0" result="hardAlpha"/>
<feOffset dy="0.307075"/>
<feGaussianBlur stdDeviation="0.61415"/>
<feColorMatrix type="matrix" values="0 0 0 0 0 0 0 0 0 0 0 0 0 0 0 0 0 0 0.15 0"/>
<feBlend mode="normal" in2="BackgroundImageFix" result="effect1_dropShadow_1921_2301"/>
<feBlend mode="normal" in="SourceGraphic" in2="effect1_dropShadow_1921_2301" result="shape"/>
</filter>
<linearGradient id="paint0_linear_1921_2301" x1="6.18846" y1="5.39536" x2="40.5349" y2="32.6599" gradientUnits="userSpaceOnUse">
<stop stop-color="#9013FE"/>
<stop offset="1" stop-color="#6610F2"/>
</linearGradient>
<linearGradient id="paint1_linear_1921_2301" x1="15.3235" y1="13.1041" x2="23.0004" y2="26.088" gradientUnits="userSpaceOnUse">
<stop stop-color="white"/>
<stop offset="1" stop-color="#F1E5FC"/>
</linearGradient>
</defs>
</svg>
