<svg width="50" height="50" viewBox="0 0 50 50" fill="none" xmlns="http://www.w3.org/2000/svg">
<g clip-path="url(#clip0_1786_2)">
<path d="M38.2812 0H11.7188C5.24666 0 0 5.24666 0 11.7188V38.2812C0 44.7533 5.24666 50 11.7188 50H38.2812C44.7533 50 50 44.7533 50 38.2812V11.7188C50 5.24666 44.7533 0 38.2812 0Z" fill="#092E20"/>
<path d="M22.0096 9.96094H27.5984V35.8301C24.7314 36.3744 22.6266 36.5922 20.3404 36.5922C13.5174 36.592 9.96094 33.5076 9.96094 27.592C9.96094 21.8941 13.7354 18.1928 19.5781 18.1928C20.4854 18.1928 21.1748 18.265 22.0096 18.4828V9.96094ZM22.0096 22.9826C21.3564 22.7652 20.8121 22.6926 20.1227 22.6926C17.292 22.6926 15.6586 24.4346 15.6586 27.4828C15.6586 30.459 17.2193 32.092 20.0863 32.092C20.7029 32.092 21.2113 32.0557 22.0096 31.9471V22.9826Z" fill="white"/>
<path d="M36.4894 18.5914V31.5469C36.4894 36.0109 36.1628 38.152 35.1829 40.0029C34.2755 41.7814 33.0778 42.9063 30.6101 44.1402L25.4204 41.6723C27.8882 40.5111 29.0858 39.4953 29.8478 37.9342C30.6464 36.3375 30.9007 34.4865 30.9007 29.6236V18.5912L36.4894 18.5914ZM30.9007 9.99023H36.4894V15.7242H30.9007V9.99023Z" fill="white"/>
</g>
<defs>
<clipPath id="clip0_1786_2">
<rect width="50" height="50" fill="white"/>
</clipPath>
</defs>
</svg>
