<svg width="40" height="40" viewBox="0 0 40 40" fill="none" xmlns="http://www.w3.org/2000/svg">
<path d="M22.1364 31.2494H35.1476C35.5601 31.2494 35.9664 31.1394 36.3251 30.9319C36.6833 30.7222 36.9803 30.4222 37.1864 30.0619C37.3936 29.7005 37.5027 29.2911 37.5027 28.8744C37.5027 28.4578 37.3936 28.0484 37.1864 27.6869L28.4464 12.4194C28.2432 12.0575 27.9472 11.7563 27.5891 11.5466C27.2309 11.337 26.8233 11.2265 26.4083 11.2265C25.9932 11.2265 25.5857 11.337 25.2275 11.5466C24.8693 11.7563 24.5734 12.0575 24.3701 12.4194L22.1351 16.3257L17.7676 8.68692C17.5642 8.32506 17.2682 8.02386 16.9099 7.81424C16.5516 7.60462 16.144 7.49414 15.7289 7.49414C15.3138 7.49414 14.9062 7.60462 14.5479 7.81424C14.1896 8.02386 13.8935 8.32506 13.6901 8.68692L2.81513 27.6869C2.50314 28.2323 2.41872 28.8787 2.58018 29.4859C2.74164 30.0932 3.13596 30.6123 3.67763 30.9307C4.03513 31.1394 4.44013 31.2494 4.85388 31.2494H13.0214C16.2576 31.2494 18.6439 29.8157 20.2851 27.0182L24.2726 20.0532L26.4076 16.3257L32.8164 27.5219H24.2726L22.1364 31.2494ZM12.8889 27.5182L7.18888 27.5169L15.7339 12.5894L19.9964 20.0519L17.1426 25.0419C16.0514 26.8569 14.8126 27.5182 12.8889 27.5182Z" fill="#00DC82"/>
</svg>
