<svg width="40" height="40" viewBox="0 0 40 40" fill="none" xmlns="http://www.w3.org/2000/svg">
<g clip-path="url(#clip0_1921_2301)">
<mask id="mask0_1921_2301" style="mask-type:luminance" maskUnits="userSpaceOnUse" x="0" y="0" width="40" height="40">
<path d="M0 0H40V40H0V0Z" fill="white"/>
</mask>
<g mask="url(#mask0_1921_2301)">
<mask id="mask1_1921_2301" style="mask-type:luminance" maskUnits="userSpaceOnUse" x="8" y="2" width="24" height="36">
<path d="M8.28125 2.5H31.7188V37.5H8.28125V2.5Z" fill="white"/>
</mask>
<g mask="url(#mask1_1921_2301)">
<path fill-rule="evenodd" clip-rule="evenodd" d="M18.9787 19.4978C21.3503 17.2412 20.6271 14.4509 18.48 11.0698C16.3329 7.68885 12.01 6.48651 11.2034 7.25401C10.3967 8.02151 10.2171 13.5079 12.3643 16.889C14.5112 20.2699 16.607 21.7543 18.9787 19.4978Z" fill="url(#paint0_linear_1921_2301)"/>
<path fill-rule="evenodd" clip-rule="evenodd" d="M21.0291 19.811C22.7829 22.5726 25.128 21.5624 28.0311 18.8001C30.9343 16.0377 32.1388 10.7471 31.5424 9.80787C30.946 8.86865 26.4119 8.91631 23.5088 11.6787C20.6057 14.441 19.2754 17.0494 21.0291 19.811Z" fill="url(#paint1_linear_1921_2301)"/>
<path fill-rule="evenodd" clip-rule="evenodd" d="M20.0689 18.2914C22.9807 18.6481 24.1264 15.9603 24.661 11.6161C25.1956 7.27189 22.9953 2.68064 22.0048 2.55939C21.0145 2.43799 17.6864 6.35189 17.1518 10.6963C16.6171 15.0405 17.1568 17.9345 20.0689 18.2914Z" fill="url(#paint2_linear_1921_2301)"/>
<path fill-rule="evenodd" clip-rule="evenodd" d="M19.3369 37.5003C25.4437 37.5003 30.3962 35.7286 30.3962 27.6941C30.3962 19.6595 25.4437 13.0664 19.3369 13.0664C13.23 13.0664 8.28125 19.6595 8.28125 27.6941C8.28125 35.7286 13.2298 37.5003 19.3369 37.5003Z" fill="url(#paint3_linear_1921_2301)"/>
<path d="M24.9212 26.0544C25.7935 26.0544 26.5007 25.726 26.5007 25.3206C26.5007 24.9153 25.7935 24.5869 24.9212 24.5869C24.0488 24.5869 23.3415 24.9155 23.3415 25.3206C23.3415 25.726 24.0487 26.0544 24.9212 26.0544ZM13.2231 25.6086C14.089 25.7149 14.831 25.4749 14.8804 25.0727C14.9299 24.6705 14.2681 24.2583 13.4023 24.1521C12.5362 24.046 11.7942 24.286 11.7448 24.6881C11.6954 25.0903 12.3573 25.5025 13.2231 25.6086Z" fill="#EAADCC"/>
<path d="M20.3487 25.0603C19.8733 25.4462 19.3242 25.6036 18.7014 25.5325C18.0785 25.4615 17.6168 25.2032 17.3164 24.7578" stroke="black" stroke-width="0.9375" stroke-linecap="round" stroke-linejoin="round"/>
<path fill-rule="evenodd" clip-rule="evenodd" d="M14.2313 21.2432C14.6673 21.228 15.0682 21.3907 15.3638 21.6661C15.5157 21.8072 15.6382 21.9769 15.7243 22.1654C15.8103 22.354 15.8582 22.5577 15.8652 22.7649C15.8727 22.972 15.8391 23.1785 15.7665 23.3726C15.6938 23.5667 15.5835 23.7445 15.4418 23.8958C15.3004 24.0475 15.1304 24.1698 14.9417 24.2557C14.7529 24.3416 14.5491 24.3895 14.3418 24.3966C14.1345 24.404 13.9278 24.3704 13.7335 24.2979C13.5391 24.2253 13.361 24.1151 13.2093 23.9736C13.0574 23.8326 12.935 23.6629 12.849 23.4743C12.7629 23.2857 12.715 23.082 12.7081 22.8749C12.7006 22.6677 12.7341 22.4612 12.8067 22.2671C12.8794 22.0729 12.9897 21.8951 13.1313 21.7438C13.2727 21.592 13.4426 21.4697 13.6314 21.3838C13.8202 21.2979 14.0241 21.2501 14.2313 21.2432Z" fill="black"/>
<path fill-rule="evenodd" clip-rule="evenodd" d="M14.3134 22.5609C14.3087 22.4245 14.25 22.2957 14.1502 22.2027C14.0505 22.1096 13.9179 22.06 13.7816 22.0648C13.6452 22.0695 13.5164 22.1282 13.4234 22.228C13.3303 22.3277 13.2807 22.4603 13.2855 22.5966C13.2879 22.6641 13.3035 22.7304 13.3316 22.7919C13.3596 22.8533 13.3995 22.9086 13.4489 22.9546C13.4983 23.0006 13.5563 23.0364 13.6195 23.06C13.6828 23.0836 13.75 23.0945 13.8175 23.0921C13.9537 23.0874 14.0824 23.0288 14.1754 22.9291C14.2684 22.8295 14.3181 22.6971 14.3134 22.5609Z" fill="white"/>
<path fill-rule="evenodd" clip-rule="evenodd" d="M23.8018 21.6436C24.2377 21.6284 24.6385 21.7911 24.9341 22.0664C25.086 22.2074 25.2085 22.3771 25.2946 22.5657C25.3806 22.7542 25.4286 22.958 25.4356 23.1651C25.4431 23.3722 25.4095 23.5788 25.3369 23.7729C25.2642 23.9671 25.1539 24.1449 25.0123 24.2962C24.8709 24.448 24.7009 24.5703 24.5121 24.6563C24.3233 24.7422 24.1194 24.7899 23.9121 24.7968C23.7048 24.8044 23.4981 24.7709 23.3038 24.6983C23.1094 24.6257 22.9314 24.5155 22.7798 24.3739C22.6279 24.2328 22.5054 24.0631 22.4193 23.8746C22.3333 23.686 22.2854 23.4823 22.2784 23.2751C22.2709 23.068 22.3044 22.8615 22.3771 22.6674C22.4497 22.4733 22.56 22.2955 22.7016 22.1442C22.843 21.9924 23.013 21.87 23.2018 21.7841C23.3906 21.6982 23.5945 21.6504 23.8018 21.6436Z" fill="black"/>
<path d="M15.6464 22.772C15.6727 23.5214 15.0858 24.1499 14.3355 24.176C13.5855 24.2021 12.9561 23.6159 12.9299 22.8665C12.9036 22.1171 13.4903 21.4887 14.2405 21.4626C14.9907 21.4365 15.6202 22.0226 15.6464 22.772ZM16.0869 22.7567C16.0522 21.7643 15.2186 20.9879 14.225 21.0226C13.2316 21.0571 12.4546 21.8895 12.4894 22.8818C12.5243 23.8742 13.3575 24.6506 14.351 24.616C15.3446 24.5815 16.1218 23.749 16.0869 22.7567ZM25.2175 23.1724C25.2438 23.9218 24.6571 24.5504 23.9069 24.5765C23.1568 24.6026 22.5272 24.0164 22.501 23.267C22.4747 22.5176 23.0616 21.889 23.8118 21.8629C24.5619 21.8368 25.1913 22.4231 25.2175 23.1724ZM25.6582 23.1571C25.6233 22.1648 24.7899 21.3884 23.7963 21.4229C22.8028 21.4576 22.0257 22.2899 22.0605 23.2823C22.0952 24.2746 22.9288 25.051 23.9222 25.0165C24.9158 24.9818 25.6928 24.1495 25.6582 23.1571Z" fill="white" stroke="white" stroke-width="0.46875"/>
<path fill-rule="evenodd" clip-rule="evenodd" d="M23.8842 22.9606C23.8793 22.8244 23.8206 22.6957 23.7208 22.6028C23.6211 22.5099 23.4885 22.4604 23.3523 22.4652C23.2841 22.4664 23.2168 22.4812 23.1544 22.5086C23.092 22.5361 23.0356 22.5758 22.9887 22.6253C22.9417 22.6748 22.9051 22.7331 22.881 22.7969C22.8568 22.8607 22.8456 22.9286 22.848 22.9968C22.8504 23.065 22.8663 23.132 22.8949 23.1939C22.9234 23.2559 22.964 23.3115 23.0143 23.3576C23.0646 23.4037 23.1236 23.4393 23.1878 23.4623C23.252 23.4854 23.3201 23.4954 23.3882 23.4919C23.5244 23.4872 23.6532 23.4285 23.7462 23.3289C23.8392 23.2293 23.8888 23.0968 23.8842 22.9606Z" fill="white"/>
<path d="M10.9648 28.4395L16.4017 34.0893M15.667 29.0998L12.2139 32.7687M27.643 28.4395L22.2061 34.0893M22.9408 29.0998L26.3939 32.7687" stroke="#ECB732" stroke-width="1.71875" stroke-linecap="round"/>
<path d="M21.5419 15.9648L17.9417 19.5602M20.8072 19.5602L17.207 15.9648" stroke="#FFC73B" stroke-width="1.71875" stroke-linecap="round"/>
</g>
</g>
</g>
<defs>
<linearGradient id="paint0_linear_1921_2301" x1="1195.43" y1="-916.785" x2="2175.3" y2="1827.47" gradientUnits="userSpaceOnUse">
<stop stop-color="#52CE63"/>
<stop offset="1" stop-color="#51A256"/>
</linearGradient>
<linearGradient id="paint1_linear_1921_2301" x1="958.061" y1="1194.18" x2="-1789.02" y2="2176.42" gradientUnits="userSpaceOnUse">
<stop stop-color="#52CE63"/>
<stop offset="1" stop-color="#51A256"/>
</linearGradient>
<linearGradient id="paint2_linear_1921_2301" x1="1215.93" y1="148.824" x2="675.232" y2="4562.42" gradientUnits="userSpaceOnUse">
<stop stop-color="#8AE99C"/>
<stop offset="1" stop-color="#52CE63"/>
</linearGradient>
<linearGradient id="paint3_linear_1921_2301" x1="3632.81" y1="2049.48" x2="3048.22" y2="11661.7" gradientUnits="userSpaceOnUse">
<stop stop-color="#FFE56C"/>
<stop offset="1" stop-color="#FFC63A"/>
</linearGradient>
<clipPath id="clip0_1921_2301">
<rect width="40" height="40" fill="white"/>
</clipPath>
</defs>
</svg>
