<svg width="40" height="40" viewBox="0 0 40 40" fill="none" xmlns="http://www.w3.org/2000/svg">
<path d="M5 35.625V19.375C5 11.0907 11.7157 4.375 20 4.375C28.2842 4.375 35 11.0907 35 19.375C35 27.6593 28.2842 34.375 20 34.375H18.75" stroke="#3B82F6" stroke-width="2"/>
<path d="M10 35.625V19.575C10 13.9416 14.4771 9.375 20 9.375C25.5229 9.375 30 13.9416 30 19.575C30 25.2083 25.5229 29.775 20 29.775H18.75" stroke="#3B82F6" stroke-width="2"/>
<path d="M20 25.6523C23.4518 25.6523 26.25 22.8541 26.25 19.4023C26.25 15.9506 23.4518 13.1523 20 13.1523C16.5482 13.1523 13.75 15.9506 13.75 19.4023C13.75 22.8541 16.5482 25.6523 20 25.6523Z" fill="#3B82F6"/>
</svg>
