<svg width="40" height="40" viewBox="0 0 40 40" fill="none" xmlns="http://www.w3.org/2000/svg">
<path d="M37.3565 7.68433L20.929 37.0593C20.8518 37.1975 20.7394 37.3127 20.6031 37.393C20.4668 37.4734 20.3115 37.5161 20.1533 37.5167C19.9951 37.5174 19.8395 37.4759 19.7026 37.3966C19.5656 37.3174 19.4522 37.2031 19.374 37.0656L2.62148 7.68683C2.53725 7.53942 2.49682 7.37105 2.50492 7.20147C2.51303 7.03189 2.56933 6.86813 2.66722 6.72943C2.76512 6.59072 2.90055 6.48281 3.05761 6.41837C3.21468 6.35392 3.38687 6.33561 3.55398 6.36558L19.999 9.30558C20.1035 9.32479 20.2107 9.32479 20.3152 9.30558L36.4165 6.37058C36.5829 6.34017 36.7546 6.3577 36.9115 6.42114C37.0684 6.48457 37.204 6.5913 37.3025 6.72888C37.401 6.86645 37.4584 7.0292 37.468 7.19815C37.4775 7.36709 37.4389 7.53653 37.3565 7.68433Z" fill="url(#paint0_linear_1921_2301)"/>
<path d="M27.8297 2.50972L15.6747 4.89097C15.5777 4.91057 15.4898 4.9616 15.4247 5.03617C15.3597 5.11074 15.321 5.20469 15.3147 5.30347L14.5672 17.9335C14.5631 18.0028 14.5752 18.0721 14.6025 18.1358C14.6299 18.1996 14.6717 18.2562 14.7248 18.301C14.7778 18.3457 14.8405 18.3775 14.908 18.3938C14.9755 18.4101 15.0458 18.4104 15.1134 18.3947L18.4972 17.6135C18.5701 17.5966 18.6461 17.5984 18.7181 17.6186C18.7901 17.6388 18.8559 17.6768 18.9095 17.729C18.963 17.7813 19.0025 17.8462 19.0244 17.9177C19.0463 17.9893 19.0498 18.0652 19.0347 18.1385L18.0297 23.0622C18.0142 23.138 18.0187 23.2165 18.0427 23.2901C18.0667 23.3637 18.1094 23.4297 18.1666 23.4818C18.2238 23.5338 18.2936 23.5701 18.3691 23.5871C18.4446 23.604 18.5232 23.6011 18.5972 23.5785L20.6872 22.9435C20.7613 22.9208 20.8401 22.9178 20.9157 22.9348C20.9913 22.9518 21.0612 22.9882 21.1185 23.0404C21.1757 23.0927 21.2184 23.1589 21.2423 23.2327C21.2662 23.3064 21.2705 23.3851 21.2547 23.461L19.6559 31.1947C19.5559 31.6785 20.1997 31.9422 20.4684 31.5285L20.6472 31.251L30.5534 11.4822C30.5906 11.4077 30.6062 11.3243 30.5985 11.2414C30.5908 11.1585 30.56 11.0795 30.5097 11.0131C30.4593 10.9468 30.3915 10.8959 30.3137 10.8661C30.236 10.8364 30.1514 10.829 30.0697 10.8447L26.5859 11.516C26.511 11.5303 26.4335 11.5252 26.3611 11.5011C26.2887 11.477 26.2236 11.4347 26.1722 11.3782C26.1208 11.3218 26.0847 11.2531 26.0674 11.1787C26.0501 11.1044 26.0522 11.0268 26.0734 10.9535L28.3459 3.07097C28.3674 2.9974 28.3695 2.91955 28.3521 2.84493C28.3347 2.77031 28.2984 2.70142 28.2466 2.64491C28.1949 2.58839 28.1294 2.54615 28.0566 2.52226C27.9838 2.49836 27.9061 2.49361 27.8309 2.50847" fill="url(#paint1_linear_1921_2301)"/>
<defs>
<linearGradient id="paint0_linear_1921_2301" x1="2.21213" y1="5.31541" x2="22.6561" y2="33.0799" gradientUnits="userSpaceOnUse">
<stop stop-color="#41D1FF"/>
<stop offset="1" stop-color="#BD34FE"/>
</linearGradient>
<linearGradient id="paint1_linear_1921_2301" x1="19.0522" y1="3.1557" x2="22.7504" y2="28.5251" gradientUnits="userSpaceOnUse">
<stop stop-color="#FFEA83"/>
<stop offset="0.083" stop-color="#FFDD35"/>
<stop offset="1" stop-color="#FFA800"/>
</linearGradient>
</defs>
</svg>
